<svg width="512" height="512" xmlns="http://www.w3.org/2000/svg">

 <g>
  <title>background</title>
  <rect fill="none" id="canvas_background" height="602" width="802" y="-1" x="-1"/>
 </g>
 <g>
  <title>Layer 1</title>
  <g id="svg_1">
   <g id="svg_2">
    <path id="svg_3" fill="#00d1b2" d="m84.272,505.166665l34.346,-40.407l34.345,40.407l34.346,-40.407l34.345,40.407l34.346,-40.407l34.345,40.407l34.346,-40.407l34.345,40.407l34.346,-40.407l34.345,40.407l0,-497l-343.455,0l0,497z"/>
   </g>
   <g id="svg_4">
    <path id="svg_5" fill="#009b84" d="m403.483,7.5l0,468.477l24.244,28.523l0,-497l-24.244,0z"/>
   </g>
   <g id="svg_6">
    <path id="svg_7" fill="#ffdd57" d="m165.085,39.825l181.829,0l0,32.325l-181.829,0l0,-32.325z"/>
   </g>
   <g id="svg_8">
    <path id="svg_9" d="m165.265,420.075c4.142,0 7.5,-3.358 7.5,-7.5l0,-4.915c10.604,-2.64 18.828,-10.671 21.04,-21.278c2.643,-12.675 -3.867,-24.514 -16.585,-30.16c-1.436,-0.638 -2.935,-1.304 -4.455,-1.985l0,-22.824c2.635,1.044 4.288,2.117 4.385,2.182c3.398,2.333 8.045,1.486 10.401,-1.901c2.366,-3.4 1.526,-8.074 -1.874,-10.439c-0.344,-0.239 -5.346,-3.654 -12.912,-5.569l0,-4.128c0,-4.142 -3.358,-7.5 -7.5,-7.5s-7.5,3.358 -7.5,7.5l0,3.182c-1.136,0.151 -2.288,0.352 -3.458,0.622c-8.926,2.06 -15.603,9.159 -17.423,18.526c-1.776,9.137 1.658,18.248 8.748,23.21c3.043,2.13 7.163,4.339 12.134,6.729l0,29.421c-3.06,-0.484 -5.444,-1.588 -9.161,-4.019c-3.467,-2.268 -8.115,-1.296 -10.382,2.17c-2.268,3.466 -1.296,8.115 2.17,10.382c6.58,4.304 11.384,5.981 17.373,6.554l0,4.238c-0.001,4.144 3.357,7.502 7.499,7.502zm13.855,-36.755c-0.67,3.215 -2.811,6.454 -6.355,8.414l0,-20.972c5.056,2.856 7.422,7.442 6.355,12.558zm-24.886,-38.51c-2.723,-1.906 -3.116,-5.533 -2.625,-8.06c0.256,-1.319 1.452,-5.706 6.072,-6.771c0.029,-0.007 0.056,-0.009 0.085,-0.016l0,17.014c-1.361,-0.76 -2.565,-1.49 -3.532,-2.167z"/>
    <path id="svg_10" d="m427.73,0l-343.46,0c-4.142,0 -7.5,3.358 -7.5,7.5l0,325.29c0,4.142 3.358,7.5 7.5,7.5s7.5,-3.358 7.5,-7.5l0,-317.79l328.46,0l0,63.99c0,4.142 3.357,7.5 7.5,7.5s7.5,-3.358 7.5,-7.5l0,-71.49c0,-4.142 -3.357,-7.5 -7.5,-7.5z"/>
    <path id="svg_11" d="m427.73,106.59c-4.143,0 -7.5,3.358 -7.5,7.5l0,370.007l-21.136,-24.865c-1.426,-1.677 -3.515,-2.643 -5.716,-2.643c-2.2,0 -4.289,0.967 -5.714,2.644l-28.626,33.686l-28.634,-33.686c-1.426,-1.677 -3.515,-2.643 -5.716,-2.643c-2.2,0 -4.289,0.966 -5.714,2.643l-28.627,33.686l-28.634,-33.686c-1.426,-1.676 -3.515,-2.643 -5.715,-2.643s-4.29,0.966 -5.714,2.643l-28.635,33.686l-28.625,-33.686c-1.425,-1.677 -3.514,-2.644 -5.715,-2.644c-2.2,0 -4.29,0.966 -5.714,2.643l-28.635,33.686l-28.625,-33.686c-1.425,-1.677 -3.514,-2.644 -5.715,-2.644c-2.2,0 -4.29,0.966 -5.714,2.643l-21.136,24.865l0,-116.206c0,-4.142 -3.358,-7.5 -7.5,-7.5s-7.5,3.358 -7.5,7.5l0,136.61c0,3.144 1.961,5.955 4.913,7.04c2.949,1.083 6.265,0.213 8.302,-2.182l28.635,-33.686l28.625,33.686c1.425,1.677 3.514,2.644 5.715,2.644c2.2,0 4.29,-0.966 5.714,-2.643l28.635,-33.686l28.625,33.686c1.425,1.677 3.514,2.644 5.715,2.644c2.2,0 4.29,-0.966 5.714,-2.643l28.637,-33.691l28.635,33.687c1.426,1.677 3.515,2.643 5.715,2.643c2.201,0 4.29,-0.966 5.715,-2.643l28.627,-33.686l28.634,33.686c1.426,1.677 3.515,2.643 5.716,2.643c2.2,0 4.289,-0.967 5.714,-2.644l28.626,-33.686l28.635,33.686c1.454,1.71 3.558,2.643 5.717,2.643c0.865,0 1.741,-0.15 2.586,-0.461c2.951,-1.085 4.912,-3.896 4.912,-7.04l0,-390.407c-0.002,-4.142 -3.359,-7.5 -7.502,-7.5z"/>
    <path id="svg_12" d="m346.915,32.325l-181.83,0c-4.142,0 -7.5,3.358 -7.5,7.5l0,32.325c0,4.142 3.358,7.5 7.5,7.5l181.829,0c4.143,0 7.5,-3.358 7.5,-7.5l0,-32.325c0.001,-4.142 -3.357,-7.5 -7.499,-7.5zm-7.5,32.325l-166.83,0l0,-17.325l166.829,0l0,17.325l0.001,0z"/>
    <path id="svg_13" d="m122.659,192.788l161.625,0c4.143,0 7.5,-3.358 7.5,-7.5s-3.357,-7.5 -7.5,-7.5l-161.625,0c-4.142,0 -7.5,3.358 -7.5,7.5s3.357,7.5 7.5,7.5z"/>
    <path id="svg_14" d="m115.159,144.882c0,4.142 3.358,7.5 7.5,7.5l161.625,0c4.143,0 7.5,-3.358 7.5,-7.5s-3.357,-7.5 -7.5,-7.5l-161.625,0c-4.143,0 -7.5,3.358 -7.5,7.5z"/>
    <path id="svg_15" d="m122.659,233.195l161.625,0c4.143,0 7.5,-3.358 7.5,-7.5s-3.357,-7.5 -7.5,-7.5l-161.625,0c-4.142,0 -7.5,3.358 -7.5,7.5s3.357,7.5 7.5,7.5z"/>
    <path id="svg_16" d="m122.659,273.601l161.625,0c4.143,0 7.5,-3.358 7.5,-7.5s-3.357,-7.5 -7.5,-7.5l-161.625,0c-4.142,0 -7.5,3.358 -7.5,7.5s3.357,7.5 7.5,7.5z"/>
    <path id="svg_17" d="m389.341,177.788l-34.346,0c-4.143,0 -7.5,3.358 -7.5,7.5s3.357,7.5 7.5,7.5l34.346,0c4.143,0 7.5,-3.358 7.5,-7.5s-3.357,-7.5 -7.5,-7.5z"/>
    <path id="svg_18" d="m389.341,137.382l-34.346,0c-4.143,0 -7.5,3.358 -7.5,7.5s3.357,7.5 7.5,7.5l34.346,0c4.143,0 7.5,-3.358 7.5,-7.5s-3.357,-7.5 -7.5,-7.5z"/>
    <path id="svg_19" d="m389.341,218.195l-34.346,0c-4.143,0 -7.5,3.358 -7.5,7.5s3.357,7.5 7.5,7.5l34.346,0c4.143,0 7.5,-3.358 7.5,-7.5s-3.357,-7.5 -7.5,-7.5z"/>
    <path id="svg_20" d="m389.341,258.601l-34.346,0c-4.143,0 -7.5,3.358 -7.5,7.5s3.357,7.5 7.5,7.5l34.346,0c4.143,0 7.5,-3.358 7.5,-7.5s-3.357,-7.5 -7.5,-7.5z"/>
    <path id="svg_21" d="m389.341,299.008l-34.346,0c-4.143,0 -7.5,3.358 -7.5,7.5s3.357,7.5 7.5,7.5l34.346,0c4.143,0 7.5,-3.358 7.5,-7.5s-3.357,-7.5 -7.5,-7.5z"/>
   </g>
  </g>
 </g>
</svg>